<svg xmlns="http://www.w3.org/2000/svg" viewBox="0 0 512 512">
	<path d="M82.8,314.6l26.5,29.1c2.6,2.6,3.8,5.6,3.8,9s-1.3,6.4-3.8,8.5s-5.6,3.4-8.5,3.4
		c-3.4,0-6.4-1.3-9-4.3l-27.4-29.1l-5.1,5.1v15.8c0,3.4-1.3,6.4-3.4,9c-2.1,2.6-5.1,3.4-8.5,3.4s-6.4-1.3-8.5-3.4
		c-2.6-2.1-3.8-5.1-3.8-8.5V244.5c0-3.4,1.3-6.4,3.4-9c2.1-2.6,5.1-3.4,8.5-3.4s6.4,1.3,8.5,3.4c2.1,2.6,3.4,5.6,3.4,9v62l30.3-29.5
		c2.6-2.6,5.6-3.8,9-3.8c3,0,6,1.3,8.1,3.8s3.4,5.1,3.4,7.7c0,3.4-1.7,6.4-4.7,9.4L82.8,314.6z M182.4,332.1c2.1-3.8,3-8.1,3-12.8
		s-0.9-9.4-3-13.3c-2.1-3.8-4.7-6.8-8.1-8.5c-3.4-2.1-6.8-3-11.1-3c-3.8,0-7.7,0.9-11.1,3s-6,5.1-8.1,8.5c-2.1,3.8-3,8.1-3,13.3
		c0,4.7,0.9,9.4,3,12.8c2.1,3.8,4.7,6.4,8.1,8.5c3.4,2.1,6.8,3,11.1,3c4.3,0,7.7-0.9,11.1-3C177.7,338.5,180.7,335.5,182.4,332.1z
		 M186.6,277.4c7.3,4.3,12.8,9.8,16.7,17.1c4.3,7.3,6,15.4,6,24.8s-2.1,17.5-6,24.8c-4.3,7.3-9.8,12.8-16.7,17.1
		c-7.3,3.8-15,6-23.5,6c-8.5,0-16.7-2.1-23.5-6c-6.8-3.8-12.8-9.8-16.7-17.1c-4.3-7.3-6-15.4-6-24.8s2.1-17.5,6-24.8
		c4.3-7.3,9.8-12.8,16.7-17.1c6.8-3.8,15-6,23.5-6C171.7,271.4,179.8,273.5,186.6,277.4z M287.9,273.1c3.4,0,6.4,1.3,8.5,3.4
		c2.1,2.6,3.4,5.6,3.4,9V327c0,12.4-3.4,22.2-10.3,29.1c-6.8,7.3-16.7,10.7-29.1,10.7c-12.4,0-22.2-3.4-29.1-10.7
		c-6.8-7.3-10.3-17.1-10.3-29.1v-41.5c0-3.4,1.3-6.4,3.4-9c2.1-2.6,5.1-3.4,8.5-3.4s6.4,1.3,8.5,3.4c2.1,2.6,3.4,5.6,3.4,9V327
		c0,6,1.3,10.3,3.8,13.3c2.6,2.6,6,3.8,11.1,3.8c5.1,0,9-1.3,11.5-3.8c2.6-2.6,3.8-7.3,3.8-13.3v-41.5c0-3.4,1.3-6.4,3.4-9
		C281.5,274,284.1,273.1,287.9,273.1z M379,337.6c3.4,0,6,1.3,8.1,3.4s3,5.1,3,8.5s-1.7,6.4-5.6,9.4c-3.4,2.6-7.7,4.3-12.8,6
		c-5.1,1.3-10.7,2.1-16.7,2.1c-8.5,0-16.7-2.1-23.1-6.4c-6.8-4.3-12-9.8-15.4-17.1c-3.4-7.3-5.6-15.4-5.6-24.4s1.7-17.5,5.6-24.8
		c3.8-7.3,9.4-12.8,16.2-17.1c6.8-4.3,14.5-6,23.1-6c9.4,0,17.5,1.7,23.1,4.7c6.4,3.4,9.8,8.1,9.8,13.7c0,3-0.9,5.6-2.6,7.7
		c-1.7,2.6-4.3,3.8-7.3,3.8c-2.1,0-3.8-0.4-5.1-0.9s-2.6-1.3-3.8-2.1c-0.9-0.9-1.7-1.3-2.6-1.7c-0.4-0.4-1.7-0.9-4.3-1.3
		c-2.1-0.4-3.4-0.4-4.7-0.4c-7.3,0-13.3,2.1-17.1,6.8c-4.3,4.7-6.4,10.7-6.4,18c0,7.3,2.1,13.3,6.4,18c4.3,4.7,9.4,6.8,15.8,6.8
		c4.7,0,8.5-0.4,10.7-1.7c0.4,0,1.3-0.4,2.1-1.7c1.3-0.9,2.6-1.7,3.4-2.1C375.6,337.6,377.3,337.6,379,337.6z M475.6,235.5
		c2.1,2.6,3.4,5.6,3.4,9v108.1c0,0.4,0,0.4,0,0.4c0,3.4-1.3,6-3.4,8.1c-1.3,1.3-3,2.1-4.7,3c-1.3,0.4-2.6,0.9-4.3,0.9
		c-3.4,0-6.4-1.3-8.5-3.4c-2.1-2.6-3.4-5.6-3.4-9v-41.5c0-6-1.3-10.3-3.8-13.3c-2.6-2.6-6.4-3.8-11.5-3.8c-5.1,0-9,1.3-11.1,3.8
		c-2.6,2.6-3.8,7.3-3.8,13.3v41.5c0,3.4-1.3,6.4-3.4,9c-2.1,2.6-5.1,3.4-8.5,3.4s-6.4-1.3-8.5-3.4c-2.1-2.6-3.4-5.6-3.4-9v-41.5
		c0-12.4,3.4-22.2,10.3-29.1c6.8-7.3,16.7-10.7,29.1-10.7c5.6,0,10.7,0.9,15,2.1v-29.1c0-3.4,1.3-6.4,3.4-9c2.1-2.6,5.1-3.4,8.5-3.4
		C470,232.1,473,233.3,475.6,235.5z" fill="#ffffff" />
	<path d="M402.5,144.9h-56.8c-11.1,0-22.2,4.7-29.9,12.8c-8.1-8.1-18.8-12.8-29.9-12.8h-57.3
		c-11.1,0-22.2,4.7-29.9,12.8c-8.1-8.1-18.8-12.8-29.9-12.8h-56.8c-23.1,0-41.9,19.2-41.9,42.7v22.7c0,23.5,18.8,42.7,41.9,42.7
		h57.3c11.1,0,22.2-4.7,29.9-12.8c8.1,8.1,18.8,12.8,29.9,12.8h56.8c11.1,0,22.2-4.7,29.9-12.8c8.1,8.1,18.8,12.8,29.9,12.8h56.8
		c23.1,0,41.9-19.2,41.9-42.7v-22.7C444.4,164.1,425.1,144.9,402.5,144.9z M186.6,209.8C186.6,210.3,186.6,210.3,186.6,209.8
		c0,10.3-8.1,18.4-18,18.4h-56.8c-9.8,0-18-8.5-18-18.4v-22.7c0-10.3,8.1-18.4,18-18.4h57.3c9.8,0,18,8.1,18,18v23.1H186.6z
		 M303.3,187.2v23.1c0,9.8-8.1,18-17.5,18h-57.3c-9.8,0-18-8.1-18-18v-23.1c0-0.4,0-0.4,0-0.4c0-9.8,8.1-18,18-18h56.8
		C295.6,168.8,303.3,176.9,303.3,187.2L303.3,187.2z M420.4,210.3c0,9.8-7.7,18-18,18.4h-56.8c-9.8,0-18-8.1-18-18
		c0-0.4,0-0.4,0-0.4v-23.1c0-9.8,8.1-18,18-18h56.8c9.8,0,18,8.5,18,18.4V210.3z" fill="#ffffff" />
</svg>
